<?xml version="1.0" encoding="utf-8"?>
<!-- Generator: Adobe Illustrator 26.0.3, SVG Export Plug-In . SVG Version: 6.00 Build 0)  -->
<svg version="1.1" id="Layer_1" xmlns="http://www.w3.org/2000/svg" xmlns:xlink="http://www.w3.org/1999/xlink" x="0px" y="0px"
	 viewBox="0 0 250.9 179.8" style="enable-background:new 0 0 250.9 179.8;" xml:space="preserve">
<style type="text/css">
	.st0{fill:#3554D8;}
	.st1{opacity:0.3;fill:#7D95B7;enable-background:new    ;}
	.st2{fill:#B7CAE5;}
	.st3{fill:#DFE5EA;}
	.st4{fill:#0091C4;}
	.st5{fill:#FFFFFF;}
	.st6{fill:#E4ECF9;}
	.st7{fill:#00B0ED;}
	.st8{opacity:0.29;fill:#474747;enable-background:new    ;}
	.st9{fill:#3B82F4;}
	.st10{fill:#FDC8AA;}
	.st11{fill:#ECF3FE;}
	.st12{fill:#9FB8D6;}
	.st13{fill:#D7E3F4;}
	.st14{fill:#15315E;}
	.st15{fill:#122C51;}
	.st16{fill:#1F3A6F;}
	.st17{fill:#FBB188;}
	.st18{fill:#EFA57F;}
	.st19{fill:#F4B545;}
	.st20{fill:#E59D29;}
	.st21{opacity:0.2;fill:#232323;enable-background:new    ;}
	.st22{fill:#FFDCA4;}
	.st23{fill:#E09F36;}
	.st24{fill:#F4CB95;}
	.st25{fill:#D8A471;}
	.st26{fill:#EDC28E;}
	.st27{fill:#E5B67F;}
	.st28{fill:#CC8E2B;}
	.st29{fill:#E29D2D;}
	.st30{fill:#00DEFF;}
	.st31{opacity:0.1;fill:#232323;enable-background:new    ;}
	.st32{fill:#F4B698;}
	.st33{opacity:0.28;enable-background:new    ;}
	.st34{fill:#E29586;}
	.st35{opacity:0.2;fill:#363636;enable-background:new    ;}
	.st36{fill:#EEEEEE;}
	.st37{fill:#92AFCC;}
	.st38{fill:#7F9FBA;}
</style>
<g>
	<path class="st0" d="M140.1,170.1C165,156.5,182,130,182,99.6c0-44.4-36-80.3-80.3-80.3c-44.4,0-80.3,36-80.3,80.3
		c0,30.4,16.9,56.9,41.9,70.6L140.1,170.1L140.1,170.1z"/>
	<path class="st0" d="M128,170.1h64.3c23-11.7,38.8-35.7,38.8-63.3c0-39.2-31.8-71-71-71s-71,31.8-71,71
		C89.2,134.5,105,158.4,128,170.1z"/>
	<path class="st1" d="M218,99.7c-0.2-0.4-0.4-0.9-0.7-1.5c-1.2-2.1-1.7-2.7-2-2.9c-0.1-0.1-0.1-0.1-0.1-0.1l0.1-0.1
		c-2.7-4.7-6.8-8.1-8.2-8.3c-1.4-0.2-1.9-0.4-4.1-1.4c-2.1-0.9-2.3,0-2.3,0l0,0c-0.2-0.1-0.4-0.2-0.5-0.3c-0.2-0.1-0.3-0.7-0.4-1.2
		c-0.1-0.6-0.2-1.2-0.3-1.5c0.6-0.9,0.9-1.9,0.9-3.1c0-0.3,0-0.5-0.1-0.8c0.6-0.1,1.2-0.9,1.2-1.7c-0.1-1.4-0.4-2.9-1.9-3.8
		c-1.5-1-2.4-1.6-3.6-1.5c-1.2,0.1-5.8,0-5.8,3.6c0,0.1-0.7,2.1-0.1,3.2c0.3,0.5,0.5,0.6,0.7,0.5c0,0.2,0,0.4,0,0.7
		c0,1.9,0.9,3.5,2.3,4.4c0.1,0.5,0.1,1.2,0.1,1.4c0,0.1-0.1,0.3-0.2,0.5c-0.1,0.2-0.2,0.4-0.3,0.6c-0.3-0.2-0.8,0.3-1.2,0.8
		c-0.5,0.6-1.3-0.3-1.8,0.3c-0.5,0.6-1.5,0.7-1.5,0.7c-3.7,0.8-6.6,3.8-6.7,4.3c-0.2,0.5-1.2,1.1-1.5,1.4c-0.3,0.2-0.3,0.5-0.3,0.6
		c-0.6,0.3-1.6,0.8-2.3,1.5c-1.1,1.1-2.5,0.8-2.9,0.8s-3.5,1.7-3.7,3.2c-0.2,1.6-0.3,4.2,1.9,5.9c0.9,0.7,1.4,0.8,1.8,0.8l0,0
		c0.6-0.1,0.7-0.7,0.7-0.7s0.1-1.8-0.7-2.9s-0.4-2.1,0.9-2.4c1.3-0.3,1.4-0.1,1.7-0.5c0.2-0.3,3.1-1.6,4.6-2.3
		c0.1,0.1,0.1,0.2,0.2,0.3c0.3,0.4,0.6,0.1,1.4-0.1c0.8-0.2,1.5,0.3,2.2-0.2c0.6-0.5,1.3-0.6,1.3-0.6c1.4,1.6,2.6,10.1,2.7,12.6l0,0
		c0,1.2-0.5,3.2-0.6,4.8c0,1.5,0.3,2.7,1.8,2.7c-0.4,1.8-1.6,8.1-0.5,14.5c1.3,7.6,1.8,10.4,4.8,14.6c0.6,0.8,1.3,1.9,2.1,3.1
		c0.1,0.1,0.2,0.3,0.3,0.4c-0.1,0.5-0.3,1-0.4,1.5c0,0,0,0.2-0.1,0.5c-0.3,1.9-1.4,9.3-1.1,9.9c0.1,0.2,0.4,0.5,0.8,0.8l-0.1,1
		c-0.1,0.1-0.1,0.1-0.2,0.3l0,0c-0.1,0.2-0.1,0.6-0.1,1.6c-0.1,2.3,0.5,3.4,1.4,3.9s3.4,0.5,4,0.2c0.3-0.1,0.4-0.5,0.5-0.9
		c0.1-0.6-0.1-1.4-0.3-1.9c-0.2-0.3-0.4-0.8-0.5-1.4c-0.1-0.4-0.2-0.9-0.3-1.3l0.1-0.6c0.3-0.1,0.6-0.5,1-1.5c0.2-0.5,0.6-2,1.1-4
		c0.4,0.6,0.8,1,1.2,1.4c0.5,0.6,0.9,0.9,1.1,0.8h0.1c0.2,0.5,0.5,1.2,0.7,2.1c0.1,0.8,0.2,1.9,0.3,2.7c0.1,1,0.1,1.8,0.1,1.9
		c0,0.1,0,0.7,0.2,1.1c0.2,0.5,0.5,0.8,1.1,0.5c1.2-0.6,2.9-1.9,3.3-3.2c0.4-1.3,0.3-2.9,1.3-4.6c1-1.7,1.6-3.5,0.9-3.8
		c-0.1,0-0.3-0.1-0.5-0.2c-0.6-0.3-1.5-0.7-2.2-0.9c0.1-0.2,0.2-0.4,0.1-0.5c-0.2-0.4-2.3-3.1-4.8-6.3c-0.2-0.3-0.5-0.6-0.7-0.9
		c0.7-3.6,1.2-6.9,1.2-8.4c-0.1-3.2,2-18.1,1.6-23.6c0.2,0,0.5,0,0.7-0.1c0.4-0.1,0.9-0.4,1.4-0.9c1.5-1.4,2.1-2.5,2.2-3.2
		c0.1-0.7,0.7-1.3,1.3-2c0.7-0.7,3.8-4,4.3-6.2C218.4,101.9,218.7,101.3,218,99.7z M198.4,137.4c0-0.1-0.1-0.3-0.1-0.4
		c-0.7-3.6,1-6.8,1-6.8l0.2-0.2c0,0,0.1,2.6-0.1,6.3c0,0.9-0.1,1.9-0.2,3C198.8,138.5,198.5,137.8,198.4,137.4z M207.3,111.7
		c0-0.1,0-0.1-0.1-0.2c-0.3-0.8-0.2-1.6-0.1-1.8l0,0v-0.1c1.1-3,0.2-12.4,0.2-12.4c2.8-0.6,4.5,1.6,4.5,1.6l0.1-0.1
		c0,0,0,0.3,0.5,0.7c0.3,0.2,0.7,0.5,1.4,0.9c0,0,1,0.3-0.1,2.6c0,0-0.1,0.4-0.2,1.2c0,0.8-1.4,3.7-2.9,4.9
		C209.8,109.9,208.3,110.8,207.3,111.7z"/>
	<path class="st2" d="M178.8,163.7l-7.1-11.1c0,0,10.5,9.3,10.5,9.1s8-17.9,8-17.9s-4.1,16.7-3.9,19.1c0,0,4.1-3.7,6-4
		s-2.6,3.5-2.6,5.7h-10.5L178.8,163.7z"/>
	<ellipse class="st2" cx="130.2" cy="168" rx="90.2" ry="5.5"/>
	<g>
		
			<ellipse transform="matrix(0.5883 -0.8086 0.8086 0.5883 -30.3113 64.5999)" class="st2" cx="48.3" cy="62.1" rx="7.3" ry="21.4"/>
		
			<ellipse transform="matrix(0.4652 -0.8852 0.8852 0.4652 -17.0319 108.241)" class="st2" cx="81.1" cy="68.2" rx="21.4" ry="7.3"/>
		<ellipse transform="matrix(0.5319 -0.8468 0.8468 0.5319 -51.856 87.9748)" class="st2" cx="53.6" cy="90.9" rx="7.3" ry="21.4"/>
		<path class="st2" d="M59.2,50.6c0,0,20.7,69.5,12.3,119.1h14.3C85.8,169.7,75.7,75.5,59.2,50.6z"/>
	</g>
	<g>
		<path class="st3" d="M176.3,106.2v57c0,0.1,0,0.1,0,0.2v0.1v0.1l0,0c0,0,0,0,0,0.1v0.1v0.1c0,0,0,0,0,0.1c0,0,0,0,0,0.1
			c0,0,0,0,0,0.1v0.1l0,0c0,0.1,0,0.1-0.1,0.2l0,0v0.1v0.1l0,0c0,0.1-0.1,0.2-0.1,0.3v0.1v0.1v0.1c0,0.1-0.1,0.1-0.1,0.2
			c0,0,0,0.1-0.1,0.1c-0.1,0.1-0.1,0.1-0.2,0.2c0,0.1-0.1,0.1-0.1,0.1l-0.1,0.1c0,0,0,0-0.1,0.1c0,0,0,0-0.1,0.1c0,0,0,0-0.1,0.1
			l0,0c-0.1,0.1-0.1,0.1-0.2,0.2l0,0c-0.1,0-0.1,0.1-0.2,0.1c0,0,0,0-0.1,0c0,0-0.1,0-0.1,0.1c0,0,0,0-0.1,0h-0.1
			c-0.2,0.1-0.4,0.2-0.6,0.3l0,0l0,0h-0.1c-0.1,0-0.2,0-0.2,0.1h-0.1h-0.1h-0.1l0,0h-0.1l0,0c0,0,0,0-0.1,0l0,0c0,0-0.1,0-0.2,0
			c-0.1,0-0.1,0-0.2,0H71.5c-0.1,0-0.1,0-0.2,0c0,0-0.1,0-0.2,0s-0.1,0-0.2,0h-0.1c-0.1,0-0.2,0-0.2,0s0,0-0.1,0s-0.2,0-0.2-0.1
			h-0.1c-0.2-0.1-0.4-0.2-0.6-0.3l-0.1-0.1c-0.1,0-0.1-0.1-0.2-0.1c-0.3-0.2-0.6-0.5-0.9-0.8c-0.1-0.1-0.1-0.1-0.2-0.2
			c-0.2-0.3-0.3-0.5-0.5-0.8c0-0.1-0.1-0.1-0.1-0.2c0-0.1,0-0.1-0.1-0.2c0-0.1,0-0.1-0.1-0.2c0-0.1,0-0.1,0-0.2l0,0
			c0-0.1,0-0.1,0-0.2l0,0c0-0.1,0-0.1,0-0.2c0-0.1,0-0.2,0-0.3v-57c0-0.5,0.1-1,0.2-1.4c0.3-0.7,0.7-1.3,1.2-1.8l0,0l0.2-0.2
			c0.7-0.5,1.5-0.7,2.4-0.7h100.7c0.1,0,0.2,0,0.3,0c0,0,0,0,0.1,0s0.2,0,0.3,0c0,0,0,0,0.1,0s0.2,0,0.2,0s0,0,0.1,0s0.2,0,0.3,0.1
			c0.1,0,0.2,0.1,0.3,0.1s0.2,0.1,0.3,0.2c0.1,0,0.1,0.1,0.2,0.1c0.1,0.1,0.2,0.1,0.3,0.2l0,0l0.2,0.2l0,0c0.1,0,0.1,0.1,0.2,0.1
			l0.1,0.1c0.1,0.1,0.2,0.2,0.3,0.4c0,0.1,0.1,0.1,0.1,0.2c0.2,0.2,0.3,0.5,0.4,0.8c0,0.1,0.1,0.1,0.1,0.2l0,0
			c0,0.1,0.1,0.2,0.1,0.4c0,0.1,0,0.1,0,0.2v0.1v0.1c0,0.1,0,0.1,0,0.2c0,0,0,0.1,0,0.2C176.3,106.1,176.3,106.1,176.3,106.2z"/>
		<path class="st4" d="M176.1,104.8H67.7c0.3-0.7,0.7-1.3,1.2-1.8l0,0l0.2-0.2l50.2-38.1c1.5-1.1,3.5-1.1,5,0l50.2,38.1l0,0l0.2,0.2
			l0,0c0.1,0,0.1,0.1,0.2,0.1l0.1,0.1c0.1,0.1,0.2,0.2,0.3,0.4c0,0.1,0.1,0.1,0.1,0.2c0.2,0.2,0.3,0.5,0.4,0.8
			C176,104.7,176.1,104.7,176.1,104.8L176.1,104.8z"/>
		<path class="st5" d="M168.5,164.3H73.9V78.5c0-4,3.3-7.3,7.3-7.3h80c4,0,7.3,3.3,7.3,7.3L168.5,164.3L168.5,164.3z"/>
		<path class="st6" d="M156,91.8H86.5c-1,0-1.8-0.8-1.8-1.8v-0.8c0-1,0.8-1.8,1.8-1.8H156c1,0,1.8,0.8,1.8,1.8V90
			C157.8,91,157,91.8,156,91.8z"/>
		<path class="st6" d="M156,101H86.5c-1,0-1.8-0.8-1.8-1.8v-0.8c0-1,0.8-1.8,1.8-1.8H156c1,0,1.8,0.8,1.8,1.8v0.8
			C157.8,100.2,157,101,156,101z"/>
		<path class="st6" d="M156,110.2H86.5c-1,0-1.8-0.8-1.8-1.8v-0.8c0-1,0.8-1.8,1.8-1.8H156c1,0,1.8,0.8,1.8,1.8v0.8
			C157.8,109.4,157,110.2,156,110.2z"/>
		<path class="st6" d="M156,119.3H86.5c-1,0-1.8-0.8-1.8-1.8v-0.8c0-1,0.8-1.8,1.8-1.8H156c1,0,1.8,0.8,1.8,1.8v0.8
			C157.8,118.5,157,119.3,156,119.3z"/>
		<path class="st6" d="M156,128.5H86.5c-1,0-1.8-0.8-1.8-1.8V126c0-1,0.8-1.8,1.8-1.8H156c1,0,1.8,0.8,1.8,1.8v0.8
			C157.8,127.7,157,128.5,156,128.5z"/>
		<path class="st7" d="M121.9,136.3L121.9,136.3c-0.2,0.2-0.3,0.3-0.6,0.5l-49.6,30.6h-0.2c-0.4,0-0.8-0.1-1.2-0.2
			c-0.1,0-0.1,0-0.2,0c-0.7-0.2-1.2-0.6-1.7-1.1l-0.1-0.1c-0.1-0.1-0.2-0.3-0.3-0.5c0-0.1-0.1-0.1-0.1-0.2c0-0.1-0.1-0.1-0.1-0.2
			c-0.3-0.5-0.4-1.1-0.4-1.8v-57c0-0.5,0.1-1,0.2-1.4c0.3-0.7,0.7-1.3,1.2-1.8l0,0l0.2-0.2c0.7-0.5,1.5-0.7,2.4-0.7h0.9l4.4,2.7
			l40.1,24.8l1.5,0.9l2.9,1.8c0.2,0.1,0.4,0.3,0.6,0.5l0,0C122.8,133.7,122.8,135.3,121.9,136.3z"/>
		<path class="st7" d="M176.3,106.2v57c0,0.1,0,0.1,0,0.2v0.1v0.1l0,0c0,0,0,0,0,0.1v0.1v0.1l0,0l0,0c0,0,0,0,0,0.1c0,0,0,0,0,0.1
			v0.1l0,0c0,0.1,0,0.1-0.1,0.2l0,0v0.1v0.1l0,0c0,0.1-0.1,0.2-0.1,0.3v0.1v0.1v0.1c0,0.1-0.1,0.1-0.1,0.2c0,0,0,0.1-0.1,0.1
			c-0.1,0.1-0.1,0.1-0.2,0.2c0,0.1-0.1,0.1-0.1,0.1l-0.1,0.1c0,0,0,0-0.1,0.1c0,0,0,0-0.1,0.1c0,0,0,0-0.1,0.1l0,0
			c-0.1,0.1-0.1,0.1-0.2,0.2l0,0c-0.1,0-0.1,0.1-0.2,0.1c0,0,0,0-0.1,0c0,0-0.1,0-0.1,0.1c0,0,0,0-0.1,0h-0.1
			c-0.2,0.1-0.4,0.2-0.6,0.3l0,0l0,0h-0.1c-0.1,0-0.2,0-0.2,0.1h-0.1h-0.1h-0.1l0,0h-0.1l0,0c0,0,0,0-0.1,0l0,0c0,0-0.1,0-0.2,0
			c-0.1,0-0.1,0-0.2,0H172l-49.6-30.6c-0.2-0.1-0.4-0.3-0.6-0.5l0,0c-0.9-1-0.9-2.5,0-3.5l0,0c0.2-0.2,0.3-0.3,0.6-0.5l2.9-1.8
			l1.5-0.9l40.1-24.8l4.4-2.7h0.9c0.1,0,0.2,0,0.3,0c0,0,0,0,0.1,0s0.2,0,0.3,0c0,0,0,0,0.1,0s0.2,0,0.2,0s0,0,0.1,0s0.2,0,0.3,0.1
			c0.1,0,0.2,0.1,0.3,0.1s0.2,0.1,0.3,0.2c0.1,0,0.1,0.1,0.2,0.1c0.1,0.1,0.2,0.1,0.3,0.2l0,0l0.2,0.2l0,0c0.1,0,0.1,0.1,0.2,0.1
			l0.1,0.1c0.1,0.1,0.2,0.2,0.3,0.4c0,0.1,0.1,0.1,0.1,0.2c0.2,0.2,0.3,0.5,0.4,0.8c0,0.1,0.1,0.1,0.1,0.2l0,0
			c0,0.1,0.1,0.2,0.1,0.4c0,0.1,0,0.1,0,0.2v0.1v0.1c0,0.1,0,0.1,0,0.2c0,0,0,0.1,0,0.2C176.3,106.1,176.3,106.1,176.3,106.2z"/>
		<path class="st8" d="M176.3,162.5v0.6c0,2.4-1.8,4.3-4.1,4.3H71.5c-2.3,0-4.1-1.9-4.1-4.3v-0.6l51.8-34.1c1.6-1.1,3.7-1.1,5.3,0
			L176.3,162.5z"/>
		<path class="st4" d="M176.3,162.7v0.6c0,2.3-1.8,4.1-4.1,4.1H71.5c-2.3,0-4.1-1.8-4.1-4.1v-0.6l51.8-32.7c1.6-1,3.7-1,5.3,0
			L176.3,162.7z"/>
		<path class="st9" d="M116.8,82.6H86.5c-1,0-1.8-0.8-1.8-1.8V80c0-1,0.8-1.8,1.8-1.8h30.3c1,0,1.8,0.8,1.8,1.8v0.8
			C118.6,81.8,117.8,82.6,116.8,82.6z"/>
	</g>
	<g>
		<polygon class="st10" points="195.7,160.4 195.5,162.6 199.8,163.3 200.1,160.6 		"/>
		<path class="st11" d="M201.1,166.9c0,0.5-0.2,0.8-0.5,0.9c-0.6,0.2-3.1,0.3-4-0.2s-1.4-1.6-1.4-3.9c0-1,0.1-1.4,0.1-1.6l0,0
			c0.1-0.3,0.2-0.1,0.3-0.6l0.2-0.2c0,0,0-0.1,0-0.2c0.1-0.5,0.5-1.8,1.6-1.8c1.4,0,1.9,0.6,2.1,1.7c0.1,0.7,0.4,1.7,0.6,2.6
			c0.2,0.5,0.3,1,0.5,1.4C201,165.5,201.2,166.3,201.1,166.9z"/>
		<path class="st12" d="M201.1,166.9c0,0.5-0.2,0.8-0.5,0.9c-0.6,0.2-3.1,0.3-4-0.2s-1.4-1.6-1.4-3.9c0-1,0.1-1.4,0.1-1.6
			c0,1.2,0.2,3.8,1.1,4.6C197.5,167.6,200,167.1,201.1,166.9z"/>
		<path class="st13" d="M200.2,163.6c-1.1,0.3-2.7,0.1-3.4-0.2c-0.6-0.3-0.8-1.3-0.9-2.3c0.1-0.5,0.5-1.8,1.6-1.8
			c1.4,0,1.9,0.6,2.1,1.7C199.8,161.7,200,162.7,200.2,163.6z"/>
		<path class="st14" d="M204.3,158.4c-0.2,0-0.6-0.3-1.1-0.8c-0.3-0.4-0.7-0.9-1.2-1.4c-0.7-0.9-1.4-1.9-2.2-3.1
			c-0.8-1.1-1.6-2.3-2.3-3.4c-0.3-0.5-0.7-1-1-1.5c-0.1-0.1-0.2-0.3-0.3-0.4c-0.8-1.2-1.5-2.3-2.1-3.1c-3-4.2-3.6-7-4.8-14.6
			c-1.3-7.6,0.7-15,0.7-15l7.8-1.4l0.5,13.2l0.1,0.6l0.2,0.8l-0.2,0.2c0,0-1.7,3.2-1,6.8c0,0.1,0.1,0.3,0.1,0.4
			c0.1,0.5,0.4,1.1,0.8,1.9c0.6,1.1,1.4,2.4,2.4,3.8c0.9,1.3,1.8,2.6,2.8,3.9c0.3,0.4,0.6,0.8,0.8,1.1s0.5,0.6,0.7,0.9
			c2.5,3.3,4.6,6,4.8,6.3C210,154.5,205.4,158.3,204.3,158.4z"/>
		<path class="st15" d="M204.8,147.3c-0.4,2.7-1.2,7.6-1.6,10.3c-0.3-0.4-0.7-0.9-1.2-1.4c-0.7-0.9-1.4-1.9-2.2-3.1
			c0.9-2.6,2.5-7.3,2.7-7.7c0.1-0.2,0.4-0.2,0.8-0.2c0.3,0.4,0.6,0.8,0.8,1.1C204.4,146.7,204.6,147,204.8,147.3z"/>
		<path class="st15" d="M202,137c0,0.1-0.7,1.9-1.6,4.4c-0.9,2.5-2.1,5.7-3,8.3c-1.1,2.9-1.9,5.2-1.9,5.2l0.4-4.7
			c0-0.3,0.1-0.5,0.1-0.5c0.1-0.5,0.3-1,0.4-1.5c-0.1-0.1-0.2-0.3-0.3-0.4l1-12.6c0,0.1,0.1,0.3,0.1,0.4c0.1,0.5,0.4,1.1,0.8,1.9
			c0.1-1,0.2-2,0.2-3C199.7,135.4,202.1,136.8,202,137z"/>
		<path class="st16" d="M205.3,138c0,1.5-0.5,4.8-1.2,8.4c-0.7,3.4-1.5,7.1-2.1,9.8c-0.5,2-0.9,3.5-1.1,4c-0.8,2-1.2,1.4-2.5,1.6
			c-1.3,0.1-3.3-1-3.6-1.7c-0.3-0.6,0.8-7.9,1.1-9.9c0-0.3,0.1-0.5,0.1-0.5c0.1-0.5,0.3-1,0.4-1.5c0.9-3.5,1.4-7.3,1.6-10.6
			c0.1-1,0.2-2,0.2-3c0.2-3.7,0.1-6.3,0.1-6.3l-0.2-0.2v-0.6l-0.3-13.3c0,0,6.3-2.5,8.3-1.8C208.3,113.1,205.3,134.1,205.3,138z"/>
		<path class="st11" d="M211.3,159.1c-1,1.7-0.9,3.3-1.3,4.6c-0.4,1.3-2.1,2.6-3.3,3.2c-0.6,0.3-0.9-0.1-1.1-0.5
			c-0.2-0.5-0.2-1-0.2-1.1s-0.1-0.9-0.1-1.9c-0.1-0.9-0.2-1.9-0.3-2.7c-0.2-1.8-1.1-2.7-1-3.1c0.1-0.4,1.8-0.6,2.7-0.9
			c0.4-0.1,0.7-0.5,1.1-1c0.3-0.5,0.5-1,0.7-1.3c0.1-0.2,0.3-0.3,0.5-0.3c0.7,0.2,1.9,0.8,2.7,1.1c0.2,0.1,0.4,0.2,0.5,0.2
			C212.9,155.5,212.3,157.4,211.3,159.1z"/>
		<polygon class="st15" points="198.4,128 196.9,125.7 196.1,113.7 198.4,113.2 		"/>
		<path class="st10" d="M181.7,95.6c0,0-5.4,2.3-5.6,2.7c-0.2,0.4-0.4,0.2-1.7,0.5s-1.7,1.2-0.9,2.4c0.8,1.1,0.7,2.9,0.7,2.9
			s-0.1,0.6-0.7,0.7l0,0c-0.4,0.1-1-0.1-1.8-0.8c-2.2-1.7-2.1-4.4-1.9-5.9c0.2-1.6,3.4-3.3,3.7-3.2c0.4,0,1.8,0.3,2.9-0.8
			c1.1-1.1,2.8-1.7,2.8-1.7l2.2,2.8L181.7,95.6z"/>
		<path class="st17" d="M181.7,95.6c0,0-5.4,2.3-5.6,2.7c-0.2,0.4-0.4,0.2-1.7,0.5s-1.7,1.2-0.9,2.4c0.8,1.1,0.7,2.9,0.7,2.9
			s-0.1,0.6-0.7,0.7c0.6-0.2,0.5-1.9-0.2-2.9c-0.6-1-0.5-2.2-0.4-2.8s2.3-0.8,3.2-1.6c0.6-0.6,3.5-1.7,5.3-2.4L181.7,95.6z"/>
		<path class="st10" d="M201.5,87.6c0.1,3.2-7,4.6-8.4,3.6s-1.9-5.7-1.9-5.7s0.5-0.9,0.8-1.5c0.1-0.2,0.1-0.4,0.2-0.5
			c0-0.4-0.2-2-0.2-2l6.3-1.1c0.1,0.2,0.2,1.1,0.3,1.9c0.1,0.6,0.3,1.1,0.4,1.2C199.6,83.9,201.4,84.4,201.5,87.6z"/>
		<path class="st18" d="M199.9,83.9c-0.1,0.2-2.4,4.9-5.9,4.7c-3.6-0.2,4.1,2.4,4.3,2.3s4.7-4.1,4.7-4.2c0-0.2-0.8-2.5-1-2.5
			C201.8,84.2,199.9,83.9,199.9,83.9z"/>
		<path class="st19" d="M214.2,93.5l-3.5,3.7c0,0-1.7-2.2-4.5-1.6c0,0,0.9,9.4-0.2,12.4c0,0,0,0,0,0.1l0,0c-0.1,0.2-0.2,1,0.1,1.8
			c0.1,0.3,0.3,0.8,0.4,1.3c0.3,0.9,0.5,1.9,0.5,1.9s-11.2,1.2-16,2.4c-2.6,0.6-3.1-0.8-3-2.6c0.1-1.6,0.6-3.6,0.6-4.8l0,0
			c0-2.5-1.2-10.9-2.7-12.6c0,0-0.7,0-1.3,0.6c-0.6,0.5-1.4,0.1-2.2,0.2c-0.8,0.2-1.1,0.5-1.4,0.1c-0.3-0.4-2.2-3.7-2.2-3.7
			s0-0.3,0.3-0.6c0.3-0.2,1.4-0.9,1.5-1.4c0.2-0.5,3-3.5,6.7-4.3c0,0,1-0.1,1.5-0.7s1.3,0.3,1.8-0.3c0.5-0.6,1.1-1.2,1.4-0.6
			c0.3,0.6,0.8,2.9,3.8,3.9c0.1,0,4.1-2.3,3.9-4.8c0,0,0.1-0.9,2.3,0c2.1,0.9,2.7,1.2,4.1,1.4C207.4,85.3,211.5,88.8,214.2,93.5z"/>
		<path class="st17" d="M198.7,82.3c-0.9,1.2-2.8,2.5-6.7,1.7c0.1-0.2,0.1-0.4,0.2-0.5c0-0.4-0.2-2-0.2-2l6.3-1.1
			C198.5,80.5,198.6,81.5,198.7,82.3z"/>
		<path class="st10" d="M199.4,77.7c0,1.6-0.6,3-1.7,3.9c-0.8,0.8-1.9,1.2-3.1,1.2c-2.6,0-4.8-2.3-4.8-5.2c0-2.9,2.1-5.2,4.8-5.2
			c1.1,0,2.1,0.4,2.9,1C198.6,74.5,199.4,76,199.4,77.7z"/>
		<path class="st17" d="M199.4,77.7c0,1.6-0.6,3-1.7,3.9c2.5-4.9-3-7.4-3-7.4s1.2-0.3,2.7-0.7C198.6,74.5,199.4,76,199.4,77.7z"/>
		<path class="st14" d="M189.3,73.4c0,0.1-0.7,2.1-0.1,3.2c0.6,1,0.9,0.2,1.4,0.2s1.4-1.9,2-1.9s5-0.4,5.6,1.3
			c0.6,1.7,2.4,0.5,2.3-0.9c-0.1-1.4-0.4-2.9-1.9-3.8s-2.4-1.6-3.6-1.5S189.3,69.9,189.3,73.4z"/>
		<path class="st20" d="M206.5,111.1c-8.2,0.6-12.8-0.2-6.9-0.5c3.5-0.2,5.4-1.3,6.4-2.5c-0.1,0.2-0.2,1,0.1,1.8
			C206.2,110.2,206.4,110.6,206.5,111.1z"/>
		<path class="st20" d="M187.9,112.9c0.1-1.6,0.6-3.6,0.6-4.8c1.2-1.1,2.9-3.1,4.7-6.8C196.3,94.8,193.1,107.9,187.9,112.9z"/>
		<path class="st10" d="M216.9,102c-0.5,2.3-3.6,5.5-4.3,6.2s-1.2,1.3-1.3,2s-0.7,1.7-2.2,3.2c-0.5,0.4-0.9,0.7-1.4,0.9
			c-1,0.3-1.8,0-2.2-0.5c-0.6-0.7-0.2-2.2-0.2-2.2c0-1.4,3-2.9,4.4-4.2c1.4-1.3,2.8-4.2,2.9-4.9c0-0.8,0.2-1.2,0.2-1.2
			c1.1-2.2,0.1-2.6,0.1-2.6c-0.7-0.3-1.2-0.6-1.4-0.9c-0.5-0.4-0.5-0.7-0.5-0.7l3.3-3.5c0,0,0,0,0.1,0.1c0.2,0.1,0.8,0.7,2,2.9
			c0.3,0.6,0.5,1,0.7,1.5C217.6,99.7,217.3,100.2,216.9,102z"/>
		<path class="st17" d="M216.9,102c-0.5,2.3-3.6,5.5-4.3,6.2s-1.2,1.3-1.3,2s-0.7,1.7-2.2,3.2c-0.5,0.4-0.9,0.7-1.4,0.9
			c0.7-0.8,2.5-2.4,2.7-3.4c0.2-1.3,2.4-3.4,4.9-6.7c1.6-2.1,1.8-4.7,1.7-6.2C217.6,99.7,217.3,100.2,216.9,102z"/>
		<path class="st18" d="M214.2,93.7c-0.6,1.1-1.7,3.1-2.9,4.1c-0.5-0.4-0.5-0.7-0.5-0.7L214.2,93.7
			C214.1,93.6,214.1,93.6,214.2,93.7z"/>
		<path class="st12" d="M211.3,159.1c-1,1.7-0.9,3.3-1.3,4.6c-0.4,1.3-2.1,2.6-3.3,3.2c-0.6,0.3-0.9-0.1-1.1-0.5
			c1.5-0.5,3.2-2.2,3.6-2.7c0.5-0.7,0.1-2.4,1.3-4.3c0.8-1.2,1.1-3,1.2-4.2c0.2,0.1,0.4,0.2,0.5,0.2
			C212.9,155.5,212.3,157.4,211.3,159.1z"/>
		<path class="st13" d="M205.4,163.3c-0.1-0.9-0.2-1.9-0.3-2.7c-0.2-1.8-1.1-2.7-1-3.1c0.1-0.4,1.8-0.6,2.7-0.9
			c0.4-0.1,0.7-0.5,1.1-1C208.2,157.5,208.6,161.5,205.4,163.3z"/>
	</g>
	<path class="st21" d="M96.9,92.8l-49-0.1c-0.7,0-1.3,0.6-1.3,1.3v19.9c0,0.7,0.6,1.3,1.3,1.3l49,0.1c0.7,0,1.3-0.6,1.3-1.3V94.1
		C98.2,93.4,97.6,92.8,96.9,92.8z"/>
	<g>
		<path class="st19" d="M93.7,112.3l-49-0.1c-0.7,0-1.3-0.6-1.3-1.3V91c0-0.7,0.6-1.3,1.3-1.3l49,0.1c0.7,0,1.3,0.6,1.3,1.3V111
			C95,111.7,94.4,112.3,93.7,112.3z"/>
		<g>
			<circle class="st22" cx="55" cy="101" r="9.3"/>
			<g>
				<path class="st19" d="M54.8,109.4c-0.1,0-0.1,0-0.2,0l0,0c-1.6-0.1-3.1-0.6-4.3-1.4c0.5-1.1,1.5-1.9,2.7-2.2l0,0
					c0.2-0.1,0.4-0.1,0.6-0.1c0.2,0,0.4,0,0.6,0h1.6c0.2,0,0.4,0,0.6,0l0,0c0.2,0,0.4,0.1,0.6,0.1c0.8,0.2,1.6,0.7,2.1,1.4
					c0.2,0.2,0.4,0.5,0.5,0.8c-1.2,0.9-2.6,1.4-4.2,1.5c-0.1,0-0.1,0-0.2,0l0,0l0,0l0,0l0,0c-0.1,0-0.1,0-0.2,0L54.8,109.4
					L54.8,109.4L54.8,109.4L54.8,109.4z"/>
				<path class="st23" d="M50.9,99.4c0,0-0.5-5.3,2.4-5.4s4.1-0.8,4.8-0.6c0.7,0.2,1.2,5.1,1,6.1S50.9,99.4,50.9,99.4z"/>
				<path class="st24" d="M56.4,104.8v1.5c0,0.6-0.6,1.2-1.4,1.1c-0.8,0-1.4-0.5-1.4-1.2v-1.5c0-0.3,0.1-0.5,0.3-0.7l0.1-0.1
					c0.1-0.1,0.2-0.1,0.3-0.2c0.2-0.1,0.4-0.1,0.6-0.1c0.2,0,0.4,0,0.6,0.1c0.1,0.1,0.2,0.1,0.3,0.2l0,0l0.1,0.1
					C56.3,104.3,56.4,104.5,56.4,104.8z"/>
				<path class="st25" d="M58.7,99.6v2.2c0,1.5-1,2.8-2.3,3.3v0.6c-0.4,0.1-0.8,0.2-1.2,0.2h-0.3c-0.4,0-0.8-0.1-1.2-0.2v-0.6
					c-1.4-0.5-2.3-1.8-2.3-3.3v-2.2c0-1,0.5-1.9,1.2-2.6c0.6-0.6,1.5-0.9,2.4-0.9h0.3c0.8,0,1.6,0.3,2.2,0.8l0,0
					C58.2,97.5,58.7,98.5,58.7,99.6z"/>
				<path class="st24" d="M58.7,99v2.7c0,0.7-0.2,1.3-0.5,1.9c-0.1,0.1-0.1,0.2-0.2,0.2c-0.1,0.1-0.1,0.2-0.2,0.3
					c-0.4,0.4-0.9,0.7-1.4,0.9c-0.4,0.1-0.8,0.2-1.2,0.2h-0.3c-0.4,0-0.8-0.1-1.2-0.2c-1.4-0.5-2.3-1.8-2.3-3.3v-2.8
					c0-1,0.5-2,1.3-2.6c0.1-0.1,0.2-0.2,0.4-0.3c0.6-0.4,1.2-0.6,1.9-0.6h0.3c0.6,0,1.1,0.1,1.6,0.4c0.1,0,0.2,0.1,0.3,0.1
					c0.1,0.1,0.2,0.1,0.3,0.2C58.2,96.8,58.8,97.9,58.7,99z"/>
				<g>
					<path class="st26" d="M60.2,100.5c0,0.8-0.6,1.4-1.4,1.4V99c0.2,0,0.4,0,0.6,0.1l0,0C59.8,99.4,60.2,99.9,60.2,100.5z"/>
					<path class="st25" d="M59.6,100.5c0,0.5-0.4,0.9-0.9,0.9v-1.8C59.2,99.6,59.6,100,59.6,100.5z"/>
				</g>
				<g>
					<path class="st26" d="M51.3,99v2.9c-0.8,0-1.4-0.6-1.4-1.4c0-0.7,0.5-1.2,1.1-1.4c0,0,0,0,0.1,0l0,0C51.2,99,51.3,99,51.3,99z"
						/>
					<path class="st25" d="M50.5,100.4c0,0.5,0.4,0.9,0.9,0.9v-1.8C50.9,99.6,50.5,100,50.5,100.4z"/>
				</g>
				<path class="st27" d="M58.7,99v2.7c0,0.7-0.2,1.3-0.5,1.9c-0.1,0.1-0.1,0.2-0.2,0.2c0.7-5.2-0.1-5.9-1.4-5.9
					c-1.3,0-1.6-1.6-1.6-1.6l2-0.4c0.1,0.1,0.2,0.1,0.3,0.2C58.2,96.8,58.8,97.9,58.7,99z"/>
				<path class="st28" d="M56.4,107.3l0.3,0.6l-1.3,1.5c-0.1,0-0.1,0-0.2,0l0,0l0,0l0,0l1.1-2.5l0,0l0.2-0.4l0,0l0,0v-0.7l0.8,1.3
					L56.4,107.3L56.4,107.3z"/>
				<path class="st5" d="M54.9,109.4L54.9,109.4c0.1,0,0.2,0,0.2,0l0,0l0,0l0,0l0.2-0.3l0.9-1.5v-0.5l0.3-0.3l-0.2-0.6
					c0,0,0,0-0.1,0.1l0,0l0,0c-0.2,0.2-0.5,0.7-1,1c-0.1,0.1-0.2,0.1-0.4,0.1s-0.3-0.1-0.5-0.2c-0.4-0.3-0.8-0.7-0.9-0.9l0,0
					c-0.1-0.1-0.1-0.1-0.1-0.1l-0.2,0.6l0.3,0.3v0.5l0.8,1.3L54.9,109.4L54.9,109.4L54.9,109.4z"/>
				<path class="st23" d="M56.4,107.3l0.3,0.6l-1.5,1.5l0,0l0,0l0,0l0,0l1-2.4l0,0l0.3-0.6l0,0l0,0v-0.7l0.8,1.4L56.4,107.3
					L56.4,107.3z"/>
				<path class="st28" d="M54.8,109.4c-0.1,0-0.1,0-0.2,0l0,0l-1.3-1.5l0.3-0.6l0,0l-0.7-0.3l0.8-1.3v0.6v0.1l0,0l0,0l0,0l0.2,0.4
					l0,0L54.8,109.4L54.8,109.4L54.8,109.4L54.8,109.4z"/>
				<polygon class="st23" points="54.8,109.4 53.3,107.9 53.6,107.3 53.7,107.2 52.9,106.9 53.7,105.6 53.7,105.7 53.7,106.3 
					53.7,106.3 53.9,107 53.9,107 54.9,109.4 54.9,109.4 54.9,109.4 				"/>
				<path class="st23" d="M57.3,95.5c0,0-1.8-0.5-2.1-0.5s-0.8,0-1.5,0.2C53,95.3,52,96,52,96l-0.2,0.4c-0.1,0.1-0.2,0.2-0.2,0.3
					c0,0,0,0.1-0.1,0.2l-0.2,0.3h0.1l0.1,0.3c0,0,0.4-0.5,1-0.8c0.8-0.3,1.8-0.3,2.6,0.2c1.3,1,3.9,0.4,3.9,0.4L57.3,95.5z"/>
			</g>
		</g>
		<path class="st29" d="M89.6,95.3H68.2c-0.6,0-1-0.5-1-1v-0.1c0-0.6,0.5-1,1-1h21.4c0.6,0,1,0.5,1,1v0.1
			C90.6,94.9,90.2,95.3,89.6,95.3z"/>
		<path class="st22" d="M89.6,99.8H68.2c-0.6,0-1-0.5-1-1v-0.1c0-0.6,0.5-1,1-1h21.4c0.6,0,1,0.5,1,1v0.1
			C90.6,99.4,90.2,99.8,89.6,99.8z"/>
		<path class="st22" d="M89.6,104.3H68.2c-0.6,0-1-0.5-1-1v-0.1c0-0.6,0.5-1,1-1h21.4c0.6,0,1,0.5,1,1v0.1
			C90.6,103.9,90.1,104.3,89.6,104.3z"/>
		<path class="st22" d="M89.6,108.8H68.2c-0.6,0-1-0.5-1-1v-0.1c0-0.6,0.5-1,1-1h21.4c0.6,0,1,0.5,1,1v0.1
			C90.6,108.3,90.1,108.8,89.6,108.8z"/>
	</g>
	<path class="st30" d="M153.4,98.2c-0.2,0-0.3-0.1-0.4-0.2c-1-0.8-1.9-1.7-2.8-2.6c-0.3-0.3-0.2-0.7,0-1c0.3-0.3,0.7-0.2,1,0
		c0.8,0.9,1.7,1.7,2.6,2.5c0.3,0.2,0.3,0.7,0.1,1C153.8,98.1,153.6,98.2,153.4,98.2z M148.3,92.7c-0.2,0-0.4-0.1-0.6-0.3
		c-0.7-1.1-1.4-2.2-1.9-3.3c-0.2-0.4,0-0.8,0.3-0.9c0.4-0.2,0.8,0,0.9,0.3c0.5,1.1,1.1,2.1,1.8,3.1c0.2,0.3,0.1,0.8-0.2,1
		C148.6,92.7,148.5,92.7,148.3,92.7z M159.2,87.1c-0.8,0-1.7-0.1-2.5-0.2c-0.4-0.1-0.7-0.4-0.6-0.8c0.1-0.4,0.4-0.7,0.8-0.6
		c1.1,0.2,2.4,0.2,3.6,0.1c0.4,0,0.7,0.3,0.7,0.6c0,0.4-0.3,0.7-0.6,0.7C160.2,87,159.7,87.1,159.2,87.1z M164.2,86.4
		c-0.3,0-0.6-0.2-0.7-0.5c-0.1-0.4,0.1-0.8,0.5-0.9c1.2-0.3,2.3-0.8,3.3-1.3c0.3-0.2,0.8-0.1,1,0.3s0.1,0.8-0.3,1
		c-1.1,0.6-2.3,1.1-3.6,1.5C164.4,86.4,164.3,86.4,164.2,86.4z M145.2,86c-0.3,0-0.6-0.2-0.7-0.5c-0.3-1.3-0.6-2.5-0.6-3.8
		c0-0.4,0.3-0.7,0.6-0.7c0.4,0,0.7,0.3,0.7,0.6c0.1,1.2,0.3,2.4,0.6,3.5c0.1,0.4-0.1,0.8-0.5,0.9C145.4,86,145.3,86,145.2,86z
		 M153.3,85.9c-0.1,0-0.2,0-0.3-0.1c-1.2-0.5-2.3-1.1-3.4-1.9c-0.3-0.2-0.4-0.7-0.1-1c0.2-0.3,0.7-0.4,1-0.1c1,0.7,2,1.3,3.1,1.8
		c0.4,0.1,0.5,0.6,0.4,0.9C153.8,85.8,153.5,85.9,153.3,85.9z M170.6,82.7c-0.2,0-0.3-0.1-0.5-0.2c-0.3-0.3-0.3-0.7-0.1-1
		c0.7-0.8,1.2-1.6,1.5-2.5c0-0.1,0.1-0.3,0.1-0.4c0.1-0.4,0.5-0.6,0.9-0.5s0.6,0.5,0.5,0.9c0,0.2-0.1,0.3-0.2,0.5
		c-0.4,1.1-1,2.1-1.7,3C171,82.6,170.8,82.7,170.6,82.7z M147.3,81.6c-0.2,0-0.4-0.1-0.5-0.2c-0.8-0.9-1.6-1.8-2.3-2.9
		c-0.3-0.1-0.4-0.4-0.4-0.7c0.2-1.3,0.5-2.6,1-3.8c0.1-0.4,0.5-0.5,0.9-0.4s0.5,0.5,0.4,0.9c-0.4,1-0.7,2-0.8,3l0,0
		c0.7,1,1.5,2,2.3,2.8c0.3,0.3,0.2,0.7,0,1C147.6,81.5,147.4,81.6,147.3,81.6z M172.5,75.7c-0.3,0-0.6-0.3-0.7-0.6
		c-0.2-1.1-0.5-2.2-1-3.4c-0.2-0.3,0-0.8,0.3-0.9c0.3-0.2,0.8,0,0.9,0.3c0.6,1.2,1,2.5,1.1,3.8C173.3,75.3,173,75.7,172.5,75.7
		C172.6,75.7,172.6,75.7,172.5,75.7z M143.1,75.5c-0.3,0-0.5-0.1-0.6-0.4c-0.6-1.1-1.1-2.3-1.5-3.5c-0.1-0.4,0.1-0.8,0.4-0.9
		c0.4-0.1,0.8,0.1,0.9,0.4c0.4,1.1,0.9,2.3,1.4,3.4c0.2,0.3,0,0.8-0.3,0.9C143.3,75.5,143.2,75.5,143.1,75.5z M147.4,71.7
		c-0.1,0-0.3,0-0.4-0.1c-0.3-0.2-0.4-0.7-0.2-1c0.7-1,1.6-2,2.5-2.9c0.3-0.3,0.7-0.3,1,0s0.3,0.7,0,1c-0.9,0.8-1.6,1.8-2.3,2.7
		C147.9,71.6,147.7,71.7,147.4,71.7z M169.4,69.1c-0.2,0-0.4-0.1-0.5-0.3c-0.8-0.9-1.6-1.7-2.6-2.4c-0.3-0.2-0.4-0.7-0.2-1
		s0.7-0.4,1-0.2c1,0.7,2,1.6,2.9,2.7c0.2,0.3,0.2,0.7-0.1,1C169.8,69,169.6,69.1,169.4,69.1z M140.6,68.5c-0.3,0-0.6-0.2-0.7-0.5
		c-0.3-1.3-0.5-2.5-0.6-3.8c0-0.4,0.2-0.7,0.6-0.8c0.4,0,0.7,0.2,0.8,0.6c0.1,1.2,0.3,2.4,0.6,3.6c0.1,0.4-0.2,0.8-0.5,0.8
		C140.7,68.5,140.6,68.5,140.6,68.5z M152.8,66.5c-0.2,0-0.5-0.1-0.6-0.3c-0.2-0.3-0.1-0.8,0.2-1c1.1-0.7,2.3-1.3,3.5-1.7
		c0.4-0.1,0.8,0.1,0.9,0.4c0.1,0.4-0.1,0.8-0.4,0.9c-1.1,0.4-2.1,0.9-3.2,1.6C153,66.5,152.9,66.5,152.8,66.5z M163.4,64.8
		c-0.1,0-0.1,0-0.2,0c-0.1,0-0.3-0.1-0.4-0.1c-0.9-0.3-1.9-0.4-2.9-0.4h-0.1c-0.4,0-0.7-0.3-0.7-0.7c0-0.4,0.3-0.7,0.7-0.7h0.2
		c1.1,0,2.2,0.2,3.2,0.5c0.2,0,0.3,0.1,0.5,0.2c0.4,0.1,0.6,0.5,0.4,0.9C164,64.6,163.7,64.8,163.4,64.8z M139.9,61.1L139.9,61.1
		c-0.4,0-0.7-0.3-0.7-0.7c0.1-1.3,0.2-2.6,0.5-3.8c0.1-0.4,0.4-0.6,0.8-0.5c0.4,0.1,0.6,0.4,0.5,0.8c-0.2,1.2-0.4,2.4-0.4,3.6
		C140.6,60.8,140.3,61.1,139.9,61.1z M141.4,53.8c-0.1,0-0.2,0-0.2,0c-0.4-0.1-0.5-0.5-0.4-0.9c0.4-1,0.9-2,1.4-2.9
		c0.1-0.2,0.2-0.4,0.3-0.5c0.2-0.3,0.6-0.4,1-0.2c0.3,0.2,0.4,0.6,0.2,1c-0.1,0.2-0.2,0.3-0.3,0.5c-0.5,0.9-0.9,1.8-1.3,2.7
		C141.9,53.6,141.7,53.8,141.4,53.8z M145.3,47.4c-0.2,0-0.3-0.1-0.5-0.2c-0.3-0.3-0.3-0.7-0.1-1c0.8-0.9,1.8-1.8,2.8-2.6
		c0.3-0.2,0.7-0.2,1,0.1c0.2,0.3,0.2,0.7-0.1,1c-1,0.8-1.8,1.6-2.6,2.5C145.6,47.4,145.4,47.4,145.3,47.4z M151.1,42.8
		c-0.2,0-0.5-0.1-0.6-0.4c-0.2-0.3-0.1-0.8,0.3-1c1.1-0.6,2.2-1.2,3.4-1.7c0.4-0.1,0.8,0,0.9,0.4c0.1,0.4,0,0.8-0.4,0.9
		c-1.1,0.5-2.3,1-3.3,1.6C151.3,42.8,151.2,42.8,151.1,42.8z M157.9,40c-0.3,0-0.6-0.2-0.7-0.5c-0.1-0.4,0.1-0.8,0.5-0.9
		c1.2-0.3,2.5-0.6,3.7-0.8c0.4-0.1,0.7,0.2,0.8,0.6c0.1,0.4-0.2,0.7-0.6,0.8C160.4,39.4,159.2,39.7,157.9,40
		C158.1,40,158,40,157.9,40z"/>
	<g>
		<ellipse class="st31" cx="172.8" cy="41.9" rx="17.8" ry="17.8"/>
		<g>
			<ellipse class="st30" cx="170.4" cy="38.1" rx="17.8" ry="17.8"/>
			<g>
				<path class="st5" d="M173.6,33l0.4-1.4l3.4,0.2l-2.6,9c-0.2,0.6-0.2,1-0.3,1.1c0,0.2,0,0.4,0.1,0.5s0.2,0.2,0.3,0.2
					c0.5,0,1.1-0.2,1.8-0.8c0.8-0.5,1.5-1.3,2.1-2.3s1-2.1,1.1-3.3c0.1-1-0.1-2-0.4-2.9c-0.3-0.9-0.8-1.8-1.5-2.5s-1.6-1.3-2.6-1.8
					c-1.1-0.5-2.3-0.7-3.6-0.8c-1.4-0.1-2.7,0-3.9,0.3s-2.2,0.7-3.2,1.3c-0.9,0.6-1.7,1.4-2.4,2.4c-0.6,0.8-1,1.8-1.4,2.8
					c-0.3,1-0.6,2.1-0.6,3.2c-0.1,1.5,0.1,2.8,0.6,4.1s1.3,2.3,2.3,3.2c1.1,0.9,2.4,1.6,3.9,2c1.6,0.5,3.3,0.7,5.3,0.6
					c1.6-0.1,3-0.3,4.1-0.8s2.1-1.1,2.9-2l2.7,0.2c-0.5,0.9-1.1,1.7-1.9,2.3c-0.8,0.7-1.6,1.2-2.6,1.6c-1,0.4-2.1,0.7-3.3,0.9
					s-2.5,0.2-3.9,0.1c-2.1-0.1-4-0.6-5.6-1.2c-1.6-0.7-3-1.6-4.1-2.7c-1.1-1.1-1.9-2.4-2.3-3.9c-0.5-1.5-0.7-3.1-0.5-4.8
					c0.1-1.8,0.6-3.5,1.3-5s1.7-2.8,2.9-3.9s2.7-1.9,4.4-2.4s3.5-0.7,5.5-0.6c1.6,0.1,3.1,0.5,4.4,1c1.3,0.6,2.4,1.3,3.3,2.3
					c0.9,1,1.6,2.1,2,3.3c0.4,1.3,0.6,2.6,0.5,4.1c-0.1,1.1-0.4,2.2-0.9,3.3s-1.1,2-2,2.8c-0.8,0.8-1.8,1.4-2.8,1.9
					c-1.1,0.4-2.2,0.6-3.4,0.5c-0.7,0-1.2-0.2-1.6-0.5c-0.4-0.3-0.6-0.7-0.7-1.2c-0.8,0.7-1.7,1.1-2.7,1.2c-1,0.1-1.9,0-2.8-0.5
					c-0.9-0.4-1.6-1.1-2.1-2s-0.7-2-0.6-3.3c0.1-1.3,0.5-2.6,1.1-3.9c0.7-1.3,1.6-2.3,2.7-3c1.1-0.8,2.3-1.1,3.7-1
					C171.9,31.1,173,31.8,173.6,33z M166.1,39.1c-0.1,1,0.1,1.8,0.5,2.4c0.4,0.6,0.9,0.9,1.6,0.9c0.8,0.1,1.5-0.2,2.2-0.8
					s1.2-1.4,1.6-2.3c0.4-1,0.6-1.9,0.7-2.8c0-0.5,0-0.9-0.1-1.2c-0.1-0.4-0.2-0.7-0.4-1s-0.4-0.5-0.7-0.7s-0.6-0.3-1-0.3
					c-0.8-0.1-1.4,0.2-2.1,0.7c-0.6,0.5-1.2,1.3-1.5,2.2C166.4,37.2,166.2,38.1,166.1,39.1z"/>
			</g>
		</g>
	</g>
	<path class="st21" d="M110.1,122H61.4c-0.7,0-1.3,0.6-1.3,1.3v19.8c0,0.7,0.6,1.3,1.3,1.3h48.7c0.7,0,1.3-0.6,1.3-1.3v-19.8
		C111.4,122.6,110.8,122,110.1,122z"/>
	<g>
		<path class="st5" d="M106.8,140.7H58.1c-0.7,0-1.3-0.6-1.3-1.3v-19.8c0-0.7,0.6-1.3,1.3-1.3h48.7c0.7,0,1.3,0.6,1.3,1.3v19.8
			C108.1,140.1,107.5,140.7,106.8,140.7z"/>
		<path class="st9" d="M102.7,124.1H81.5c-0.5,0-1-0.4-1-1l0,0c0-0.5,0.4-1,1-1h21.2c0.5,0,1,0.4,1,1l0,0
			C103.7,123.7,103.3,124.1,102.7,124.1z"/>
		<path class="st11" d="M102.7,128.6H81.5c-0.5,0-1-0.4-1-1l0,0c0-0.5,0.4-1,1-1h21.2c0.5,0,1,0.4,1,1l0,0
			C103.7,128.1,103.3,128.6,102.7,128.6z"/>
		<path class="st11" d="M102.7,133H81.5c-0.5,0-1-0.4-1-1l0,0c0-0.5,0.4-1,1-1h21.2c0.5,0,1,0.4,1,1l0,0
			C103.7,132.6,103.3,133,102.7,133z"/>
		<path class="st11" d="M102.7,137.5H81.5c-0.5,0-1-0.4-1-1l0,0c0-0.5,0.4-1,1-1h21.2c0.5,0,1,0.4,1,1l0,0
			C103.7,137,103.3,137.5,102.7,137.5z"/>
		<g>
			<circle class="st11" cx="68.4" cy="129.6" r="9.4"/>
			<g>
				<path class="st19" d="M72.9,135.6c-0.5,0.4-1.1,0.7-1.7,1c-0.3,0.1-0.6,0.2-0.9,0.3s-0.7,0.2-1.1,0.2c-0.3,0-0.6,0.1-0.9,0.1
					s-0.6,0-0.9-0.1c-1.4-0.2-2.6-0.7-3.7-1.5c0.5-1,1.5-1.8,2.6-2.1l0,0l0,0c0.2-0.1,0.4-0.1,0.6-0.1l0,0c0.2,0,0.4,0,0.5,0H69
					c0.2,0,0.4,0,0.5,0l0,0c0.2,0,0.4,0.1,0.6,0.1l0,0l0,0C71.5,133.8,72.4,134.6,72.9,135.6z"/>
				<path class="st14" d="M72.8,126.4v5c0,1.1-0.9,2-2,2h-4.7c-1.1,0-2-0.9-2-2v-5c0-4.5,4.4-4.3,4.4-4.3s1.1-0.1,2.2,0.5
					c1,0.5,2,1.4,2.1,3.3C72.8,126.1,72.8,126.2,72.8,126.4z"/>
				<path class="st32" d="M69.7,132.6v1.5c0,0.6-0.6,1.1-1.3,1.1c-0.7,0-1.3-0.5-1.3-1.1v-1.5c0-0.3,0.1-0.5,0.3-0.7l0.1-0.1
					c0.1-0.1,0.2-0.1,0.3-0.2c0.2-0.1,0.4-0.1,0.6-0.1s0.4,0,0.6,0.1c0.1,0.1,0.2,0.1,0.3,0.2l0,0l0.1,0.1
					C69.6,132.1,69.7,132.4,69.7,132.6z"/>
				<path class="st33" d="M72.1,127.5v2.1c0,1.5-1,2.8-2.3,3.3v0.6c-0.4,0.1-0.8,0.2-1.2,0.2h-0.3c-0.4,0-0.8-0.1-1.2-0.2v-0.6
					c-1.3-0.5-2.3-1.8-2.3-3.3v-2.1c0-1,0.4-1.9,1.1-2.6c0.6-0.6,1.5-0.9,2.4-0.9h0.3c0.8,0,1.6,0.3,2.2,0.8l0,0
					C71.5,125.4,72,126.4,72.1,127.5z"/>
				<path class="st32" d="M72.1,126.9v2.7c0,0.7-0.2,1.4-0.6,2l0,0c-0.1,0.1-0.2,0.3-0.3,0.4c-0.2,0.2-0.4,0.4-0.7,0.6
					c-0.2,0.1-0.4,0.2-0.7,0.3c-0.4,0.1-0.8,0.2-1.2,0.2h-0.3c-0.4,0-0.8-0.1-1.2-0.2c-1.3-0.5-2.3-1.8-2.3-3.3v-2.7v-0.1
					c0-1,0.5-1.9,1.2-2.6c0.1-0.1,0.2-0.2,0.4-0.3c0.6-0.4,1.2-0.6,1.9-0.6h0.3c0.8,0,1.5,0.3,2.1,0.7c0.3,0.2,0.6,0.5,0.8,0.9
					c0.1,0.1,0.2,0.3,0.2,0.4C71.9,125.9,72.1,126.4,72.1,126.9z"/>
				<g>
					<path class="st32" d="M73.5,128.4c0,0.8-0.6,1.4-1.4,1.4V127c0.2,0,0.4,0,0.5,0.1l0,0C73.1,127.3,73.5,127.8,73.5,128.4z"/>
					<path class="st34" d="M72.9,128.4c0,0.5-0.4,0.9-0.9,0.9v-1.7C72.5,127.5,72.9,127.9,72.9,128.4z"/>
				</g>
				<path class="st14" d="M70.3,133.5L70.3,133.5l-1.1,3.6c-0.3,0-0.6,0.1-0.9,0.1s-0.6,0-0.9-0.1l-1.1-3.6l0,0H67l0,0l1.2,1.2
					l1.2-1.2l0,0H70.3z"/>
				<g>
					<path class="st32" d="M64.7,127v2.8c-0.8,0-1.4-0.6-1.4-1.4c0-0.7,0.5-1.2,1.1-1.4c0,0,0,0,0.1,0l0,0
						C64.6,127,64.7,127,64.7,127z"/>
					<path class="st34" d="M63.9,128.4c0,0.5,0.4,0.9,0.9,0.9v-1.7C64.3,127.5,63.9,127.9,63.9,128.4z"/>
				</g>
				<path class="st14" d="M71.3,136.6c-0.3,0.1-0.6,0.2-0.9,0.3v-0.3H71.3z"/>
				<polygon class="st35" points="68.4,134.8 69.4,135.5 70.3,133.5 				"/>
				<polygon class="st36" points="70.3,133.5 69.4,135.4 68.4,134.8 69.6,133.5 69.8,133.4 				"/>
				<polygon class="st35" points="66.5,133.5 67.3,135.5 68.4,134.8 				"/>
				<polygon class="st36" points="68.4,134.8 67.4,135.4 66.5,133.5 67,133.4 67.2,133.5 				"/>
				<path class="st14" d="M72.8,126.3c-2.6,0.2-2.4-2.2-2.1-3.3C71.7,123.4,72.6,124.4,72.8,126.3z"/>
				<path class="st14" d="M71.4,124.2c-0.1,0.1-1,1.8-2.6,1.8s-4.2,1-4.3,2.6c-0.1,1.6-2-4.9,2.9-5.5
					C72.4,122.6,71.4,124.2,71.4,124.2z"/>
			</g>
		</g>
	</g>
	<g>
		<g>
			<polygon class="st37" points="105,41.9 104.7,15.9 144.6,7.5 			"/>
			<path class="st2" d="M104.9,24.2c0.2-0.1,39.7-16.7,39.7-16.7l-52.5,7L104.9,24.2z"/>
			<polygon class="st38" points="109.3,27.5 105,41.9 123.2,26.4 			"/>
			<polygon class="st2" points="109.3,27.5 122.1,37.2 144.6,7.5 			"/>
		</g>
	</g>
	<circle class="st19" cx="231.6" cy="46.4" r="4"/>
	<circle class="st2" cx="40" cy="130.1" r="4"/>
	<circle class="st19" cx="75.5" cy="37.2" r="5.2"/>
	<circle class="st19" cx="5.8" cy="87.4" r="3.7"/>
	<circle class="st2" cx="243.2" cy="142.7" r="5.6"/>
</g>
</svg>
