<?xml version="1.0" encoding="UTF-8"?>
<svg xmlns="http://www.w3.org/2000/svg" xmlns:xlink="http://www.w3.org/1999/xlink" viewBox="0 0 150 150" width="150px" height="150px">
<g id="surface46751282">
<path style=" stroke:none;fill-rule:nonzero;fill:rgb(0%,0%,0%);fill-opacity:1;" d="M 75 12.5 C 40.480469 12.5 12.5 40.480469 12.5 75 C 12.5 102.773438 30.628906 126.285156 55.6875 134.425781 L 94.3125 134.425781 C 119.371094 126.285156 137.5 102.773438 137.5 75 C 137.5 40.480469 109.519531 12.5 75 12.5 Z M 75 12.5 "/>
<path style=" stroke:none;fill-rule:nonzero;fill:rgb(92.54902%,94.117647%,94.509804%);fill-opacity:1;" d="M 115.625 73.4375 C 115.625 64.382812 112.890625 57.917969 108.265625 53.363281 C 111.222656 48.105469 107.308594 37.5 107.308594 37.5 C 99.496094 39.0625 93.664062 42.1875 89.78125 44.925781 C 85.195312 44.109375 80.222656 43.75 75 43.75 C 69.65625 43.75 64.566406 44.117188 59.894531 44.976562 C 56.011719 42.230469 50.160156 39.074219 42.292969 37.5 C 42.292969 37.5 38.28125 48.414062 41.496094 53.582031 C 37.007812 58.125 34.375 64.535156 34.375 73.4375 C 34.375 92.570312 46.496094 100.242188 63.152344 102.417969 C 60.832031 105.148438 59.375 108.636719 59.375 112.5 L 59.375 113.453125 C 58.867188 113.59375 58.335938 113.714844 57.769531 113.789062 C 54.308594 114.238281 50.671875 113.789062 48.914062 112.75 C 47.160156 111.710938 45.074219 109.367188 43.511719 107.085938 C 42.195312 105.160156 39.566406 100.734375 32.835938 100.898438 C 31.664062 100.867188 31.125 101.972656 31.273438 102.660156 C 31.410156 103.265625 31.941406 104.222656 34.074219 105.003906 C 36.214844 105.789062 37.398438 107.671875 38.570312 109.558594 C 39.875 111.664062 39.871094 117.273438 46.574219 120.234375 C 51.355469 122.351562 55.914062 122.089844 59.378906 121.257812 L 59.382812 131.253906 C 59.382812 133.25 57.554688 134.769531 55.660156 134.417969 C 61.734375 136.460938 68.226562 137.5 75 137.5 C 81.769531 137.5 88.257812 136.460938 94.34375 134.425781 C 92.449219 134.773438 90.625 133.253906 90.625 131.257812 L 90.625 112.5 C 90.625 108.636719 89.167969 105.148438 86.847656 102.417969 C 103.503906 100.242188 115.625 92.570312 115.625 73.4375 Z M 115.625 73.4375 "/>
<path style=" stroke:none;fill-rule:nonzero;fill:rgb(92.54902%,94.117647%,94.509804%);fill-opacity:1;" d="M 46.875 56.25 L 58.867188 52.253906 C 62.023438 51.199219 62.714844 46.992188 60.007812 45.058594 L 59.894531 44.976562 C 52.398438 46.351562 46.003906 49.011719 41.492188 53.582031 C 42.488281 55.179688 44.152344 56.25 46.875 56.25 Z M 46.875 56.25 "/>
<path style=" stroke:none;fill-rule:nonzero;fill:rgb(92.54902%,94.117647%,94.509804%);fill-opacity:1;" d="M 89.664062 45.007812 C 86.921875 46.953125 87.617188 51.214844 90.808594 52.277344 L 102.726562 56.25 C 105.578125 56.25 107.289062 55.09375 108.265625 53.363281 C 103.703125 48.867188 97.289062 46.257812 89.78125 44.921875 C 89.742188 44.949219 89.703125 44.976562 89.664062 45.007812 Z M 89.664062 45.007812 "/>
<path style=" stroke:none;fill-rule:nonzero;fill:rgb(92.54902%,94.117647%,94.509804%);fill-opacity:1;" d="M 75 96.875 C 70.234375 96.875 66.019531 99.054688 63.152344 102.417969 C 66.902344 102.910156 70.878906 103.125 75 103.125 C 79.121094 103.125 83.097656 102.910156 86.847656 102.417969 C 83.980469 99.054688 79.765625 96.875 75 96.875 Z M 75 96.875 "/>
</g>
</svg>
